<svg width="275" height="119" viewBox="0 0 275 119" fill="none" xmlns="http://www.w3.org/2000/svg">
<g opacity="0.1">
<path d="M214.673 2.83648C214.673 2.83648 217.673 -2.16352 245.173 2.83648C272.673 7.83648 264.673 34.8365 272.673 50.8365C280.673 66.8365 258.173 94.8365 245.173 94.8365C232.173 94.8365 214.673 94.8365 214.673 94.8365V2.83648Z" fill="#DC622E"/>
<path d="M73.1727 27.3364C73.1727 27.3364 93.8575 13.232 132.816 9.10016C171.775 4.96829 215.673 1.83643 215.673 1.83643L215.173 94.8364C215.173 94.8364 89.9123 87.6057 60.3233 80.3749C30.7342 73.1441 73.1727 27.3364 73.1727 27.3364Z" fill="white"/>
<path d="M0.173021 0.836827C2.67302 -5.66317 73.173 27.8368 73.173 27.8368L75.6729 82.8364C75.6729 82.8364 3.17278 121.836 0.173021 117.837C-2.82674 113.837 34.173 59.8368 34.173 59.8368C34.173 59.8368 -2.32698 7.33683 0.173021 0.836827Z" fill="#DC622E"/>
</g>
</svg>
